<svg width="122" height="122" viewBox="0 0 122 122" fill="none" xmlns="http://www.w3.org/2000/svg">
<path d="M10.4134 1.78663C8.03113 -0.595544 4.16886 -0.595544 1.78663 1.78663C-0.595543 4.16887 -0.595543 8.03115 1.78663 10.4134L111.587 120.213C113.969 122.596 117.831 122.596 120.213 120.213C122.595 117.831 122.595 113.969 120.213 111.587L87.7985 79.172C89.207 76.8278 88.9007 73.7412 86.8798 71.7202C82.3073 67.1477 76.8264 64.0379 71.0174 62.3909L57.548 48.9215C71.1607 47.9623 85.0992 52.6864 95.5064 63.0936C97.8885 65.4756 101.751 65.4756 104.133 63.0936C106.515 60.7109 106.515 56.849 104.133 54.4664C88.6037 38.9371 66.784 33.5313 46.8757 38.249L37.3505 28.7238C62.4085 19.2718 91.3609 25.3168 111.438 46.859C113.734 49.3234 117.595 49.4595 120.059 47.1625C122.523 44.8656 122.659 41.0057 120.363 38.5411C95.4418 11.8017 58.6228 5.4201 28.0229 19.3963L10.4134 1.78663Z" fill="#1F1CEB"/>
<path d="M1.58543 38.2046C-0.638326 40.798 -0.506751 44.8598 1.87923 47.2768C4.26527 49.6939 8.00216 49.5507 10.2259 46.9574C12.6878 44.0862 15.2875 41.4766 18 39.1286L9.60146 30C6.81455 32.4955 4.13565 35.2304 1.58543 38.2046Z" fill="#1F1CEB"/>
<path d="M26.2816 47C23.2846 49.1344 20.4324 51.5801 17.7675 54.338C15.4108 56.7775 15.4108 60.7314 17.7675 63.1709C20.1242 65.6097 23.9452 65.6097 26.3018 63.1709C28.9863 60.3923 31.9082 58.0097 35 56.023L26.2816 47Z" fill="#1F1CEB"/>
<path d="M44.3263 65C40.9158 66.684 37.7156 68.8951 34.857 71.6333C32.381 74.0047 32.381 77.85 34.857 80.2214C37.333 82.5929 41.3475 82.5929 43.8234 80.2214C46.7771 77.3921 50.2783 75.4069 54 74.2652L44.3263 65Z" fill="#1F1CEB"/>
<path d="M61 110C54.3724 110 49 104.404 49 97.5C49 90.5963 54.3724 85 61 85C67.6276 85 73 90.5963 73 97.5C73 104.404 67.6276 110 61 110Z" fill="#1F1CEB"/>
</svg>
