<svg width="179" height="159" viewBox="0 0 179 159" fill="none" xmlns="http://www.w3.org/2000/svg">
<path d="M78.3266 0.185181C72.8432 0.246107 68.8465 0.0389576 65.5687 1.85455C63.8728 2.82512 62.5771 4.36695 61.9131 6.20468C61.182 8.11775 60.9383 10.3842 60.9383 13.2477V35.8879C60.9383 38.7514 61.1942 41.0057 61.9131 42.9065C62.578 44.7437 63.8734 46.2853 65.5687 47.2567C68.8465 49.0601 72.8432 48.8651 78.3266 48.926H85.2965V73.2965H42.6483C34.5329 73.2965 28.7937 78.268 26.5394 82.7644C24.2852 87.2729 24.3705 91.5743 24.3705 91.5743V109.852H17.4005C11.9172 109.913 7.92041 109.706 4.64259 111.521C2.94668 112.492 1.65102 114.034 0.987024 115.872C0.255911 117.785 0.012207 120.051 0.012207 122.915V145.555C0.012207 148.418 0.268097 150.673 0.987024 152.573C1.65195 154.411 2.94737 155.952 4.64259 156.924C7.92041 158.727 11.9172 158.532 17.4005 158.593H43.5256C49.009 158.532 53.0179 158.739 56.2835 156.924C57.9285 156.022 59.208 154.487 59.9391 152.573C60.6458 150.66 60.9139 148.418 60.9139 145.555V122.915C60.9139 120.051 60.6458 117.785 59.9391 115.872C59.2779 114.032 57.9815 112.49 56.2835 111.521C53.0179 109.694 49.009 109.913 43.5378 109.852H36.5557V91.5743C36.5557 91.5743 36.6775 89.8074 37.433 88.2234C38.225 86.6271 38.5784 85.4817 42.6483 85.4817H157.311C157.024 84.5496 156.666 83.6411 156.239 82.7644C154.669 79.87 152.34 77.4587 149.501 75.7903C146.662 74.1219 143.422 73.2597 140.13 73.2965H97.4817V48.926H104.452C109.935 48.8651 113.932 49.0723 117.21 47.2567C118.842 46.355 120.134 44.8196 120.853 42.9065C121.572 40.9935 121.828 38.7514 121.828 35.8879V13.2477C121.828 10.3842 121.572 8.11775 120.853 6.20468C120.195 4.36728 118.903 2.82485 117.21 1.85455C113.932 0.0267724 109.935 0.246107 104.452 0.185181H78.3266ZM73.1357 12.3704H109.691V36.7408H73.1357V12.3704ZM12.2096 122.037H48.7653V146.408H12.2096V122.037Z" fill="#0000FF"/>
<path d="M151 103C143.574 103 136.452 105.95 131.201 111.201C125.95 116.452 123 123.574 123 131C123 138.426 125.95 145.548 131.201 150.799C136.452 156.05 143.574 159 151 159C158.426 159 165.548 156.05 170.799 150.799C176.05 145.548 179 138.426 179 131C179 123.574 176.05 116.452 170.799 111.201C165.548 105.95 158.426 103 151 103ZM147 111H155V120.344C155 123.128 154.872 125.68 154.624 128C154.384 130.32 154.072 132.648 153.704 135H148.376C147.963 132.679 147.629 130.344 147.376 128C147.117 125.456 146.991 122.901 147 120.344V111ZM151 143C152.061 143 153.078 143.421 153.828 144.172C154.579 144.922 155 145.939 155 147C155 148.061 154.579 149.078 153.828 149.828C153.078 150.579 152.061 151 151 151C149.939 151 148.922 150.579 148.172 149.828C147.421 149.078 147 148.061 147 147C147 145.939 147.421 144.922 148.172 144.172C148.922 143.421 149.939 143 151 143Z" fill="#F22C42"/>
</svg>
